<?xml version="1.0" encoding="UTF-8" standalone="no"?>
<!-- Created with Inkscape (http://www.inkscape.org/) -->

<svg
   width="48"
   height="48"
   viewBox="0 0 48 48"
   version="1.1"
   id="svg1"
   xmlns="http://www.w3.org/2000/svg"
   xmlns:svg="http://www.w3.org/2000/svg">
  <defs
     id="defs1" />
  <g
     id="layer1">
    <path
       d="m 3.5656902,32.838757 v -1.18 h 2.46 v -10.1 h -2.32 v -1.18 h 6.18 v 1.18 h -2.46 v 10.12 H 10.00569 v 1.16 z"
       id="text1"
       style="font-size:20px;line-height:1.25;font-family:Inconsolata;-inkscape-font-specification:Inconsolata;text-align:center;letter-spacing:0px;word-spacing:0px;text-anchor:middle;stroke:#ffffff;stroke-width:2;stroke-linejoin:round;paint-order:stroke fill markers"
       aria-label="I" />
    <path
       d="m 16.9167,42.266364 q -1.22,0 -2.2,-0.4 -0.96,-0.4 -1.7,-1.18 l 0.72,-1.26 0.08,-0.18 0.14,0.08 q 0.04,0.14 0.1,0.32 0.06,0.16 0.28,0.4 0.52,0.44 1.2,0.7 0.7,0.26 1.58,0.26 0.56,0 1.02,-0.16 0.48,-0.18 0.82,-0.46 0.36,-0.3 0.54,-0.68 0.2,-0.4 0.2,-0.84 0,-0.34 -0.08,-0.62 -0.06,-0.28 -0.26,-0.5 -0.18,-0.24 -0.5,-0.46 -0.32,-0.24 -0.82,-0.5 -0.5,-0.26 -1.2,-0.56 -1.3,-0.5 -2.06,-1.08 -0.74,-0.6 -1.06,-1.26 -0.3,-0.66 -0.3,-1.36 0,-0.92 0.46,-1.6 0.46,-0.7 1.3,-1.08 0.86,-0.4 2.04,-0.4 0.68,0 1.3,0.2 0.64,0.18 1.18,0.52 0.56,0.34 0.98,0.84 l -0.78,1.04 -0.12,0.16 -0.12,-0.08 q -0.02,-0.16 -0.08,-0.32 -0.06,-0.16 -0.28,-0.4 -0.48,-0.46 -1.02,-0.62 -0.54,-0.18 -1.28,-0.18 -0.5,0 -0.9,0.14 -0.38,0.14 -0.66,0.4 -0.28,0.26 -0.44,0.6 -0.14,0.32 -0.14,0.68 0,0.34 0.08,0.62 0.08,0.28 0.28,0.54 0.2,0.26 0.54,0.52 0.36,0.26 0.88,0.52 0.54,0.26 1.3,0.56 0.92,0.38 1.52,0.76 0.62,0.36 0.96,0.78 0.36,0.4 0.5,0.88 0.16,0.48 0.16,1.06 0,0.86 -0.44,1.7 -0.42,0.82 -1.34,1.36 -0.92,0.54 -2.38,0.54 z"
       id="text1-8"
       style="font-size:20px;line-height:1.25;font-family:Inconsolata;-inkscape-font-specification:Inconsolata;text-align:center;letter-spacing:0px;word-spacing:0px;text-anchor:middle;stroke:#ffffff;stroke-width:2;paint-order:stroke fill markers"
       aria-label="S" />
    <path
       d="M 24.950914,15.976662 V 3.5166617 h 3.68 q 1.48,0 2.38,0.44 0.92,0.44 1.34,1.24 0.42,0.8 0.42,1.88 0,0.7 -0.32,1.4 -0.3,0.7 -0.88,1.22 -0.56,0.5200003 -1.34,0.7200003 l 2.88,5.56 h -1.56 l -2.76,-5.5 h -2.42 v 5.5 z m 1.42,-6.7400003 h 2.42 q 1.34,0 1.94,-0.58 0.6,-0.6 0.6,-1.58 0,-0.62 -0.26,-1.12 -0.26,-0.52 -0.82,-0.82 -0.56,-0.3 -1.46,-0.3 h -2.42 z"
       id="text1-3"
       style="font-size:20px;line-height:1.25;font-family:Inconsolata;-inkscape-font-specification:Inconsolata;text-align:center;letter-spacing:0px;word-spacing:0px;text-anchor:middle;stroke:#ffffff;stroke-width:2;paint-order:stroke fill markers"
       aria-label="R" />
    <path
       d="m 40.958324,23.10802 q -1.02,0 -1.9,-0.36 -0.88,-0.38 -1.56,-1.16 -0.66,-0.78 -1.04,-1.98 -0.38,-1.2 -0.38,-2.86 0,-1.46 0.28,-2.54 0.28,-1.1 0.76,-1.84 0.48,-0.74 1.1,-1.18 0.62,-0.44 1.3,-0.64 0.68,-0.2 1.36,-0.2 1.36,0 2.32,0.68 0.96,0.66 1.44,1.78 l -1.2,0.56 -0.18,0.08 -0.06,-0.14 q 0.06,-0.16 0,-0.28 -0.06,-0.14 -0.22,-0.42 -0.5,-0.68 -1.04,-0.9 -0.52,-0.24 -1.1,-0.24 -0.78,0 -1.42,0.36 -0.62,0.34 -1.08,1.02 -0.44,0.66 -0.68,1.62 -0.22,0.96 -0.22,2.18 0,1.18 0.26,2.14 0.28,0.96 0.74,1.66 0.48,0.7 1.1,1.08 0.64,0.38 1.36,0.38 0.5,0 0.96,-0.18 0.48,-0.18 0.88,-0.52 0.4,-0.36 0.68,-0.82 l 1.04,0.68 q -0.6,1 -1.44,1.52 -0.84,0.52 -2.06,0.52 z"
       id="text1-4"
       style="font-size:20px;line-height:1.25;font-family:Inconsolata;-inkscape-font-specification:Inconsolata;text-align:center;letter-spacing:0px;word-spacing:0px;text-anchor:middle;stroke:#ffffff;stroke-width:2;paint-order:stroke fill markers"
       aria-label="C" />
    <g
       id="g6"
       transform="rotate(45,13.663449,26.205993)">
      <rect
         style="fill:#e5e5e5;fill-opacity:1;stroke:#000000;stroke-width:2;stroke-linejoin:round;stroke-dasharray:none;stroke-opacity:1"
         id="rect6"
         width="39.537575"
         height="3.9306364"
         x="4.2543354"
         y="15.306359" />
      <rect
         style="fill:#525252;fill-opacity:1;stroke-width:0.377333"
         id="rect4"
         width="39.537571"
         height="3.9306359"
         x="4.2543354"
         y="15.306359" />
      <rect
         style="fill:#e5e5e5;fill-opacity:1;stroke-width:0.377333"
         id="rect5"
         width="7.8612714"
         height="3.9306359"
         x="4.2543354"
         y="15.306359" />
      <rect
         style="fill:#e5e5e5;fill-opacity:1;stroke-width:0.377333"
         id="rect5-0"
         width="7.8612714"
         height="3.9306359"
         x="35.930637"
         y="15.30636" />
    </g>
    <path
       style="fill:#ffe09c;fill-opacity:1;stroke:#f3c400;stroke-width:1.53561;stroke-linejoin:round;stroke-dasharray:none;stroke-opacity:1"
       id="path6"
       d="M 6.8750003,9.6249998 2.5827318,6.9298757 -2.0707991,8.9378368 -0.83396769,4.0228077 -4.1816723,0.21753085 0.87500008,-0.12500005 3.4595358,-4.4847515 5.3478998,0.21858179 10.292935,1.3293841 6.403336,4.5787348 Z"
       transform="matrix(0.65149854,0,0,0.65091625,13.868494,4.1368165)" />
    <path
       style="fill:#ffe09c;fill-opacity:1;stroke:#f3c400;stroke-width:1.53561;stroke-linejoin:round;stroke-dasharray:none;stroke-opacity:1"
       id="path6-2"
       d="M 6.8750003,9.6249998 2.5827318,6.9298757 -2.0707991,8.9378368 -0.83396769,4.0228077 -4.1816723,0.21753085 0.87500008,-0.12500005 3.4595358,-4.4847515 5.3478998,0.21858179 10.292935,1.3293841 6.403336,4.5787348 Z"
       transform="matrix(0.28114019,-0.58771638,0.58719109,0.28088892,2.8784105,11.570272)" />
  </g>
</svg>
